<?xml version="1.0" standalone="no"?>
<!DOCTYPE svg PUBLIC "-//W3C//DTD SVG 20010904//EN"
 "http://www.w3.org/TR/2001/REC-SVG-20010904/DTD/svg10.dtd">
<svg version="1.0" xmlns="http://www.w3.org/2000/svg"
 width="358.000000pt" height="358.000000pt" viewBox="0 0 358.000000 358.000000"
 preserveAspectRatio="xMidYMid meet">
<metadata>
Created by potrace 1.14, written by Peter Selinger 2001-2017
</metadata>
<g transform="translate(0.000000,358.000000) scale(0.100000,-0.100000)"
fill="#000000" stroke="none">
<path d="M0 1790 l0 -1790 1790 0 1790 0 0 1790 0 1790 -1790 0 -1790 0 0
-1790z m3475 -15 l0 -1700 -1680 -3 c-924 -1 -1690 0 -1702 3 l-23 5 0 1694
c0 931 3 1696 7 1699 3 4 770 6 1702 5 l1696 -3 0 -1700z"/>
<path d="M127 3433 c-4 -3 -7 -750 -7 -1660 l0 -1653 1660 0 1660 0 -2 1658
-3 1657 -1651 3 c-908 1 -1654 -1 -1657 -5z m3161 -1656 l2 -1507 -1512 2
-1513 3 -3 1485 c-1 817 0 1495 3 1508 l5 22 1508 -2 1507 -3 3 -1508z"/>
<path d="M314 3236 c-3 -7 -4 -37 -2 -66 l3 -53 390 -118 c215 -65 393 -119
397 -119 7 0 48 72 48 84 0 2 -77 68 -171 145 l-171 141 -244 0 c-198 0 -246
-3 -250 -14z"/>
<path d="M896 3242 c-4 -7 261 -233 281 -239 4 -1 24 11 43 27 l35 29 -32 63
c-18 35 -42 78 -53 96 l-20 32 -124 0 c-69 0 -127 -4 -130 -8z"/>
<path d="M1216 3242 c-4 -7 70 -162 77 -162 1 0 22 6 47 14 l45 13 -4 64 c-2
35 -5 67 -8 72 -6 10 -151 9 -157 -1z"/>
<path d="M1423 3184 c2 -36 6 -66 8 -68 2 -2 25 -6 51 -9 l46 -6 21 66 c11 37
18 70 15 75 -3 4 -37 8 -76 8 l-71 0 6 -66z"/>
<path d="M1610 3225 c-16 -42 -42 -136 -38 -140 1 -1 21 -12 43 -23 l40 -20
73 89 c40 49 75 95 78 104 5 13 -8 15 -90 15 -93 0 -97 -1 -106 -25z"/>
<path d="M1785 3136 c-52 -63 -95 -118 -95 -123 0 -4 14 -23 30 -40 l30 -33
274 147 c151 81 273 150 270 155 -3 4 -97 8 -209 8 l-204 0 -96 -114z"/>
<path d="M2100 3080 c-173 -93 -319 -171 -323 -172 -11 -4 15 -89 28 -94 9 -4
1261 115 1398 132 l48 6 -3 146 -3 147 -415 2 -415 2 -315 -169z"/>
<path d="M310 2871 c0 -110 3 -202 8 -204 9 -4 736 69 757 77 10 4 15 19 15
50 l0 45 -82 25 c-46 14 -217 66 -382 115 -164 50 -302 91 -307 91 -5 0 -9
-90 -9 -199z"/>
<path d="M1344 3050 c-165 -54 -255 -237 -198 -403 19 -57 90 -138 153 -175
41 -24 56 -27 141 -27 80 0 102 4 138 23 66 35 119 88 149 150 24 48 28 69 28
137 -1 96 -26 156 -93 223 -82 83 -202 110 -318 72z"/>
<path d="M2630 2850 c-316 -32 -632 -63 -701 -70 l-127 -12 -5 -47 c-3 -25 -1
-48 3 -51 5 -3 145 -47 313 -99 l304 -93 99 61 c54 34 104 61 111 61 6 0 85
-65 174 -144 l163 -143 136 -42 c75 -22 140 -41 144 -41 3 0 5 152 4 338 -3
329 -3 337 -23 338 -11 1 -279 -24 -595 -56z"/>
<path d="M695 2660 c-209 -21 -381 -39 -382 -39 -2 -1 -3 -100 -3 -222 0 -175
3 -220 13 -217 31 7 779 412 784 423 6 16 -15 95 -25 94 -4 -1 -178 -18 -387
-39z"/>
<path d="M1757 2584 l-22 -45 22 -17 c12 -9 75 -61 141 -114 65 -54 121 -98
124 -98 3 0 17 17 31 38 25 39 25 39 149 61 150 27 162 31 152 41 -5 5 -130
45 -279 90 -148 44 -276 83 -283 85 -7 3 -22 -14 -35 -41z"/>
<path d="M723 2346 l-413 -220 0 -132 0 -132 68 -26 c37 -14 74 -26 82 -25 8
0 103 112 210 250 107 137 198 249 202 249 4 0 33 -16 65 -35 45 -27 60 -32
69 -22 6 6 52 63 104 125 l93 113 -29 32 c-16 18 -31 35 -34 38 -3 3 -191 -93
-417 -215z"/>
<path d="M2485 2475 c-113 -69 -126 -74 -230 -94 -60 -12 -120 -24 -132 -26
-14 -3 -50 -49 -107 -137 l-87 -133 -214 -135 c-118 -74 -215 -141 -215 -147
0 -7 19 -48 42 -92 l43 -79 188 -88 189 -89 106 -139 c59 -77 116 -150 127
-163 l20 -24 55 120 55 121 197 178 197 177 56 171 56 172 -107 241 c-58 132
-109 241 -113 240 -3 0 -60 -34 -126 -74z"/>
<path d="M1668 2477 l-38 -32 44 -80 c23 -44 68 -128 100 -187 l57 -107 35 21
c30 18 70 70 127 165 5 7 -44 53 -130 124 -76 62 -142 116 -148 120 -5 4 -27
-7 -47 -24z"/>
<path d="M1133 2345 c-51 -62 -93 -118 -93 -123 0 -13 178 -123 184 -114 2 4
23 70 46 147 23 77 45 145 47 151 3 9 -72 55 -88 53 -2 0 -46 -51 -96 -114z"/>
<path d="M2751 2393 c0 -31 11 -69 29 -108 l28 -60 1 87 c1 85 1 87 -29 108
l-30 21 1 -48z"/>
<path d="M1533 2409 c-21 -6 -33 -16 -33 -27 2 -54 47 -473 53 -478 7 -8 237
137 237 149 0 5 -43 89 -96 188 -101 188 -99 186 -161 168z"/>
<path d="M1357 2393 c-3 -5 -26 -77 -52 -162 -37 -123 -44 -156 -33 -162 7 -5
36 -23 64 -40 41 -25 59 -45 88 -100 42 -77 52 -87 71 -68 12 12 10 54 -11
264 -13 138 -26 256 -29 263 -5 13 -91 17 -98 5z"/>
<path d="M2854 2218 c7 -146 7 -128 0 -396 l-5 -213 33 -52 33 -52 3 395 3
395 -26 23 c-14 12 -31 22 -36 22 -7 0 -9 -42 -5 -122z"/>
<path d="M697 2032 c-98 -125 -179 -231 -179 -237 0 -5 47 -27 104 -48 57 -21
107 -43 113 -48 5 -5 28 -58 51 -117 l41 -107 168 -95 169 -95 115 -237 116
-238 138 0 c75 0 137 4 137 8 0 5 -47 112 -105 238 l-105 229 -107 100 c-60
55 -128 118 -152 140 l-43 41 92 203 c77 169 90 205 79 216 -17 15 -421 263
-440 269 -9 4 -77 -74 -192 -222z"/>
<path d="M2960 1849 l0 -400 33 -47 32 -47 3 419 2 420 -27 28 c-15 15 -30 28
-35 28 -4 0 -8 -180 -8 -401z"/>
<path d="M3062 2232 c4 -12 174 -162 182 -162 4 0 6 26 4 57 l-3 57 -90 28
c-103 32 -98 31 -93 20z"/>
<path d="M3070 1735 l0 -414 29 -15 c16 -9 31 -12 35 -9 3 4 6 185 6 403 l0
396 -28 27 c-15 15 -31 27 -35 27 -4 0 -7 -187 -7 -415z"/>
<path d="M3180 1665 l0 -395 26 -10 c14 -6 30 -10 35 -10 5 0 9 151 9 379 l0
379 -35 26 -35 27 0 -396z"/>
<path d="M1370 1679 l0 -255 28 -27 c15 -15 31 -27 35 -27 4 0 7 99 7 220 0
215 -1 222 -25 268 -13 26 -29 54 -34 62 -8 10 -11 -63 -11 -241z"/>
<path d="M2787 1797 c-22 -69 -21 -83 3 -114 l20 -26 0 97 c0 53 -1 96 -3 96
-2 0 -11 -24 -20 -53z"/>
<path d="M1291 1761 c-29 -64 -32 -76 -29 -156 3 -85 4 -88 36 -113 l32 -25 0
182 c0 99 -2 181 -4 181 -1 0 -17 -31 -35 -69z"/>
<path d="M310 1314 l0 -504 30 0 30 0 0 494 0 494 -30 11 -30 10 0 -505z"/>
<path d="M410 1290 l0 -480 30 0 30 0 0 474 c0 423 -2 475 -16 480 -46 18 -44
35 -44 -474z"/>
<path d="M510 1275 l0 -466 33 3 32 3 3 446 c2 474 4 458 -45 473 l-23 7 0
-466z"/>
<path d="M1480 1536 l0 -199 33 -66 32 -66 3 202 c2 199 2 204 -22 250 -46 88
-46 90 -46 -121z"/>
<path d="M620 1255 l0 -446 33 3 32 3 3 426 c2 453 4 438 -45 453 l-23 7 0
-446z"/>
<path d="M2542 1512 l-184 -167 -58 -125 c-63 -137 -63 -124 -9 -199 l17 -22
318 0 c176 0 388 1 472 1 l152 0 0 94 c0 63 -4 97 -12 103 -7 6 -60 31 -118
57 l-106 47 -134 189 c-74 104 -139 189 -145 189 -5 0 -93 -75 -193 -167z"/>
<path d="M731 1208 l-1 -398 30 0 30 0 -1 328 0 327 -29 70 -29 70 0 -397z"/>
<path d="M1590 1340 l0 -240 29 -65 c17 -36 32 -65 35 -65 3 0 6 130 6 290 l0
289 -30 16 c-16 8 -31 15 -35 15 -3 0 -5 -108 -5 -240z"/>
<path d="M1700 1195 c0 -347 4 -385 42 -385 17 0 18 17 18 344 l0 345 -22 15
c-12 9 -26 16 -30 16 -5 0 -8 -151 -8 -335z"/>
<path d="M1800 1144 l0 -335 33 3 32 3 3 317 2 317 -29 16 c-17 8 -32 15 -36
15 -3 0 -5 -151 -5 -336z"/>
<path d="M1910 1121 l0 -311 30 0 30 0 0 288 c0 263 -2 290 -17 304 -44 37
-43 45 -43 -281z"/>
<path d="M840 1116 l0 -306 30 0 30 0 0 288 0 288 -30 17 -30 18 0 -305z"/>
<path d="M942 1083 l3 -268 33 -3 32 -3 0 259 0 259 -25 11 c-14 7 -30 12 -36
12 -6 0 -8 -100 -7 -267z"/>
<path d="M2020 1062 l0 -252 30 0 30 0 0 213 -1 212 -29 39 -30 40 0 -252z"/>
<path d="M1052 1053 l3 -238 28 -3 27 -3 0 230 c0 217 -1 231 -19 241 -41 21
-41 19 -39 -227z"/>
<path d="M1152 1008 l3 -193 33 -3 32 -3 0 136 c0 131 -1 138 -30 195 -17 33
-33 60 -35 60 -3 0 -4 -87 -3 -192z"/>
<path d="M2122 988 l3 -173 33 -3 32 -3 0 141 c0 137 -1 142 -26 176 -15 19
-30 34 -35 34 -6 0 -8 -74 -7 -172z"/>
<path d="M2232 918 l3 -103 33 -3 32 -3 0 66 c0 57 -4 73 -27 106 -16 21 -32
39 -36 39 -4 0 -6 -46 -5 -102z"/>
<path d="M1260 898 l0 -88 40 0 c26 0 40 5 40 13 -1 6 -19 46 -40 87 l-39 75
-1 -87z"/>
<path d="M2373 918 l25 -33 423 0 424 0 3 33 3 32 -452 0 -452 0 26 -32z"/>
<path d="M2340 848 c0 -34 3 -38 25 -38 31 0 32 11 0 47 l-24 28 -1 -37z"/>
<path d="M2440 834 c0 -3 9 -19 21 -35 l20 -29 -1085 0 -1086 0 0 -35 0 -35
1468 2 1467 3 0 65 0 65 -402 3 c-222 1 -403 -1 -403 -4z"/>
<path d="M310 560 l0 -100 1470 0 1471 0 -3 98 -3 97 -1467 3 -1468 2 0 -100z"/>
<path d="M310 360 l0 -50 1470 0 1470 0 0 50 0 50 -1470 0 -1470 0 0 -50z"/>
</g>
</svg>
